 <svg
           
            version="1.0"
            xmlns="http://www.w3.org/2000/svg"
            viewBox="0 0 512.000000 512.000000"
            preserveAspectRatio="xMidYMid meet"
          >
            <g
              class="fill-lime-500"
              transform="translate(0.000000,512.000000) scale(0.100000,-0.100000)"
              fill="#b65d5d"
              stroke="#b65d5d"
            >
              <path
                d="M610 5104 c-247 -53 -460 -231 -554 -463 -59 -145 -56 -41 -56 -2081
         0 -1629 2 -1880 15 -1944 56 -272 246 -484 519 -579 l91 -32 1935 0 1935 0 95
         33 c239 83 408 253 493 496 l32 91 0 1925 c0 2047 2 1954 -47 2080 -74 189
         -239 359 -419 431 -145 58 17 53 -2064 56 -1616 1 -1920 -1 -1975 -13z m3842
         -295 c171 -37 321 -187 357 -357 16 -76 16 -3709 0 -3784 -37 -171 -187 -321
         -357 -357 -76 -16 -3709 -16 -3784 0 -170 36 -321 187 -357 357 -16 75 -16
         3709 0 3784 35 165 178 313 344 354 69 17 3717 20 3797 3z"
              />
              <path
                d="M1105 4496 c-84 -21 -147 -57 -211 -121 -177 -176 -177 -453 1 -630
         258 -259 695 -118 757 244 24 141 -22 281 -127 387 -112 113 -269 158 -420
         120z m175 -306 c45 -23 80 -80 80 -130 0 -76 -74 -150 -151 -150 -46 0 -108
         39 -130 82 -37 72 -14 151 57 194 48 29 92 30 144 4z"
              />
              <path
                d="M838 3289 c-23 -12 -46 -35 -58 -59 -20 -39 -20 -57 -20 -1270 0
         -1214 0 -1231 20 -1270 13 -26 34 -47 60 -60 37 -19 58 -20 370 -20 312 0 333
         1 370 20 26 13 47 34 60 60 20 39 20 56 20 1270 0 1214 0 1231 -20 1270 -13
         26 -34 47 -60 60 -37 19 -58 20 -372 20 -312 -1 -335 -2 -370 -21z m522 -1329
         l0 -1050 -150 0 -150 0 0 1050 0 1050 150 0 150 0 0 -1050z"
              />
              <path
                d="M2038 3289 c-23 -12 -46 -35 -58 -59 -20 -39 -20 -57 -20 -1270 0
         -1214 0 -1231 20 -1270 13 -26 34 -47 60 -60 37 -19 58 -20 370 -20 312 0 333
         1 370 20 79 40 74 -5 80 820 5 721 5 736 26 781 31 66 78 114 142 146 47 23
         70 28 132 28 124 -1 214 -56 267 -163 l28 -57 5 -735 c6 -825 1 -780 80 -820
         37 -19 58 -20 370 -20 312 0 333 1 370 20 26 13 47 34 60 60 20 40 21 50 18
         938 -3 883 -4 898 -25 973 -97 343 -342 588 -678 679 -113 31 -346 39 -468 16
         -94 -18 -203 -54 -278 -92 l-46 -23 -21 44 c-15 31 -33 50 -61 65 -38 19 -58
         20 -373 20 -312 -1 -335 -2 -370 -21z m522 -369 c0 -112 20 -159 80 -190 80
         -41 126 -24 245 89 138 131 294 191 499 191 204 0 356 -59 486 -189 60 -59 86
         -95 119 -161 72 -147 71 -132 71 -987 l0 -763 -150 0 -150 0 0 633 c0 598 -1
         638 -20 711 -29 113 -73 190 -160 276 -86 87 -163 131 -276 160 -98 25 -190
         25 -288 0 -113 -29 -190 -73 -276 -160 -87 -86 -131 -163 -160 -276 -19 -73
         -20 -113 -20 -711 l0 -633 -150 0 -150 0 0 1050 0 1050 150 0 150 0 0 -90z"
              />
            </g>
          </svg>
