   <svg
            version="1.0"
            class="w-14"
            xmlns="http://www.w3.org/2000/svg"
            viewBox="0 0 512.000000 512.000000"
            preserveAspectRatio="xMidYMid meet"
          >
            <g
              class="fill-lime-500"
              transform="translate(0.000000,512.000000) scale(0.100000,-0.100000)"
              fill="#b65d5d"
              stroke="none"
            >
              <path
                d="M452 4620 c-109 -29 -187 -74 -272 -160 -87 -86 -131 -163 -160 -276
       -18 -68 -20 -111 -20 -358 l0 -281 1118 -831 c614 -457 1145 -845 1179 -863
       162 -81 364 -81 525 0 60 30 129 80 749 541 157 117 570 424 918 682 l631 470
       0 281 c0 248 -2 291 -20 359 -29 113 -73 190 -160 276 -86 87 -163 131 -276
       160 -76 20 -117 20 -2108 19 -1967 0 -2033 -1 -2104 -19z m4171 -409 c21 -13
       50 -42 65 -64 26 -40 27 -44 30 -221 l3 -181 -1016 -755 c-558 -415 -1034
       -765 -1057 -777 -54 -30 -122 -30 -176 0 -23 12 -498 362 -1056 777 l-1015
       755 -1 160 c0 88 5 177 11 198 13 47 77 113 121 126 21 6 793 9 2043 8 l2010
       -2 38 -24z"
              />
              <path
                d="M0 2027 c0 -977 1 -1017 20 -1091 29 -113 73 -190 160 -276 86 -87
       163 -131 276 -160 76 -20 118 -20 2104 -20 1986 0 2028 0 2104 20 113 29 190
       73 276 160 87 86 131 163 160 276 19 74 20 114 20 1091 0 557 -2 1013 -5 1013
       -3 0 -92 -66 -200 -146 l-195 -145 -2 -868 -3 -867 -27 -41 c-15 -22 -44 -51
       -65 -64 l-38 -24 -2026 0 -2025 0 -41 27 c-22 15 -51 44 -64 65 l-24 38 -3
       867 -2 868 -196 145 c-107 80 -197 145 -199 145 -3 0 -5 -456 -5 -1013z"
              />
            </g>
          </svg>